<svg width="16" height="18" viewBox="0 0 16 18" fill="none" xmlns="http://www.w3.org/2000/svg">
<g clip-path="url(#clip0_2306_113)">
<path d="M5.60204 1.125V2.25H10.0837V1.125C10.0837 0.503789 10.5844 0 11.2041 0C11.8238 0 12.3245 0.503789 12.3245 1.125V2.25H14.0051C14.9329 2.25 15.6857 3.00551 15.6857 3.9375V5.625H0V3.9375C0 3.00551 0.752424 2.25 1.68061 2.25H3.36122V1.125C3.36122 0.503789 3.86191 0 4.48163 0C5.10136 0 5.60204 0.503789 5.60204 1.125ZM0 6.75H15.6857V16.3125C15.6857 17.2441 14.9329 18 14.0051 18H1.68061C0.752424 18 0 17.2441 0 16.3125V6.75ZM2.24082 10.6875C2.24082 10.9969 2.49151 11.25 2.80102 11.25H3.92143C4.22954 11.25 4.48163 10.9969 4.48163 10.6875V9.5625C4.48163 9.25312 4.22954 9 3.92143 9H2.80102C2.49151 9 2.24082 9.25312 2.24082 9.5625V10.6875ZM6.72245 10.6875C6.72245 10.9969 6.97454 11.25 7.28265 11.25H8.40306C8.71117 11.25 8.96327 10.9969 8.96327 10.6875V9.5625C8.96327 9.25312 8.71117 9 8.40306 9H7.28265C6.97454 9 6.72245 9.25312 6.72245 9.5625V10.6875ZM11.7643 9C11.4562 9 11.2041 9.25312 11.2041 9.5625V10.6875C11.2041 10.9969 11.4562 11.25 11.7643 11.25H12.8847C13.1928 11.25 13.4449 10.9969 13.4449 10.6875V9.5625C13.4449 9.25312 13.1928 9 12.8847 9H11.7643ZM2.24082 15.1875C2.24082 15.4969 2.49151 15.75 2.80102 15.75H3.92143C4.22954 15.75 4.48163 15.4969 4.48163 15.1875V14.0625C4.48163 13.7531 4.22954 13.5 3.92143 13.5H2.80102C2.49151 13.5 2.24082 13.7531 2.24082 14.0625V15.1875ZM7.28265 13.5C6.97454 13.5 6.72245 13.7531 6.72245 14.0625V15.1875C6.72245 15.4969 6.97454 15.75 7.28265 15.75H8.40306C8.71117 15.75 8.96327 15.4969 8.96327 15.1875V14.0625C8.96327 13.7531 8.71117 13.5 8.40306 13.5H7.28265ZM11.2041 15.1875C11.2041 15.4969 11.4562 15.75 11.7643 15.75H12.8847C13.1928 15.75 13.4449 15.4969 13.4449 15.1875V14.0625C13.4449 13.7531 13.1928 13.5 12.8847 13.5H11.7643C11.4562 13.5 11.2041 13.7531 11.2041 14.0625V15.1875Z" />
</g>
</svg>
