<svg width="20" height="20" fill="current" xmlns="http://www.w3.org/2000/svg"><path d="M19 12h-1V1a1 1 0 0 0-1-1H3a1 1 0 0 0-1 1v11H1a1 1 0 0 0 0 2h8v1.15l-4.55 3A1 1 0 0 0 5 20a.94.94 0 0 0 .55-.17L9 17.55V19a1 1 0 1 0 2 0v-1.45l3.45 2.28A.94.94 0 0 0 15 20a1 1 0 0 0 .55-1.83l-4.55-3V14h8a1 1 0 0 0 0-2Zm-3 0H4V2h12v10Zm-9-2a1 1 0 0 0 .83-.45l1.33-2 1.13 1.14a1 1 0 0 0 .81.29 1 1 0 0 0 .73-.45l2-3a1 1 0 0 0-1.66-1.1l-1.33 2-1.13-1.14A1 1 0 0 0 8.9 5a1 1 0 0 0-.73.45l-2 3a1 1 0 0 0 .28 1.38A.94.94 0 0 0 7 10Z" /></svg>