<svg xmlns="http://www.w3.org/2000/svg" width="23" height="19" viewBox="0 0 23 19" fill="none">
<path d="M11.8743 16.3777C5.90066 16.3777 2.48827 11.65 1.6459 10.483C1.6204 10.4477 1.59726 10.4156 1.57647 10.387L1.55068 10.3163L1.57572 10.2482C1.59651 10.2197 1.61967 10.1877 1.64521 10.1524C2.48744 8.98757 5.90842 4.25635 11.8743 4.25635C17.8412 4.25635 21.2654 8.9893 22.1074 10.153C22.1328 10.1881 22.1558 10.22 22.1765 10.2483L22.2015 10.3163L22.1757 10.387C22.155 10.4155 22.1319 10.4475 22.1064 10.4828C21.2643 11.6495 17.8515 16.3777 11.8743 16.3777Z" fill="white" stroke="#94A2AD" stroke-width="1.5"/>
<circle cx="11.8763" cy="10.317" r="4.24451" fill="white" stroke="#94A2AD" stroke-width="1.5"/>
<rect x="4.08686" y="3.55225" width="0.756744" height="20.2433" rx="0.378372" transform="rotate(-45 4.08686 3.55225)" fill="#C4C4C4" stroke="#94A2AD" stroke-width="0.756744"/>
<rect x="4.3072" y="1.41431" width="1" height="21" rx="0.5" transform="rotate(-45 4.3072 1.41431)" fill="white" stroke="white"/>
</svg>