<svg width="23" height="20" viewBox="0 0 23 20" fill="none" xmlns="http://www.w3.org/2000/svg">
<path d="M0.00798607 9.98047C0.00798607 10.6836 0.606945 11.2344 1.28576 11.2344H2.56354L2.53559 17.4883C2.5316 18.875 3.6776 20 5.09115 20H17.8849C19.2964 20 20.4409 18.8789 20.4409 17.5V11.2344H21.7202C22.4402 11.2344 23 10.6836 23 9.98047C23 9.62891 22.88 9.31641 22.6003 9.04297L12.3625 0.313125C12.083 0.0391406 11.7635 0 11.484 0C11.2045 0 10.8851 0.0782812 10.6415 0.273984L0.447222 9.04297C0.127777 9.31641 -0.0359364 9.62891 0.00798607 9.98047ZM11.5 6.25C12.9095 6.25 14.0556 7.37109 14.0556 8.75C14.0556 10.1289 12.9095 11.25 11.5 11.25C10.0905 11.25 8.94444 10.1289 8.94444 8.75C8.94444 7.37109 10.0905 6.25 11.5 6.25ZM12.7778 12.5C14.5427 12.5 15.9722 13.8984 15.9722 15.625C15.9722 15.9688 15.6847 16.25 15.3333 16.25H7.66667C7.31528 16.25 7.02778 15.9688 7.02778 15.625C7.02778 13.8984 8.45729 12.5 10.2222 12.5H12.7778Z" />
</svg>