<svg width="16" height="16" viewBox="0 0 20 20" xmlns="http://www.w3.org/2000/svg">
<path d="M6.25 16.25H3.75C3.05977 16.25 2.5 15.6902 2.5 15V5C2.5 4.30977 3.05977 3.75 3.75 3.75H6.25C6.94024 3.75 7.5 3.19023 7.5 2.5C7.5 1.80977 6.94141 1.25 6.25 1.25H3.75C1.67891 1.25 0 2.92891 0 5V15C0 17.0711 1.67891 18.75 3.75 18.75H6.25C6.94024 18.75 7.5 18.1902 7.5 17.5C7.5 16.8098 6.94141 16.25 6.25 16.25ZM19.6328 9.11719L14.6328 4.11719C14.1441 3.62852 13.3531 3.6293 12.8652 4.11719C12.377 4.60547 12.377 5.39648 12.8652 5.88477L15.7344 8.75H7.5C6.80859 8.75 6.25 9.30859 6.25 10C6.25 10.6914 6.80899 11.25 7.5 11.25H15.7344L12.868 14.1164C12.3797 14.6047 12.3797 15.3957 12.868 15.884C13.3563 16.3723 14.1473 16.3723 14.6355 15.884L19.6355 10.884C20.1211 10.3945 20.1211 9.60547 19.6328 9.11719Z" />
</svg>
