<svg version="1.0" xmlns="http://www.w3.org/2000/svg" viewBox="0 0 999.000000 219.000000" preserveAspectRatio="xMidYMid meet">

<g transform="translate(0.000000,219.000000) scale(0.100000,-0.100000)"
fill="#000000" stroke="none">
<path d="M441 2174 c-30 -8 -84 -28 -120 -46 -90 -42 -215 -168 -259 -258 -64
-132 -62 -101 -62 -1027 l0 -843 303 2 302 3 3 766 2 765 28 27 c15 15 41 29
57 32 43 8 97 -24 112 -66 9 -25 12 -229 12 -781 l1 -748 305 0 305 0 0 764 0
764 26 31 c32 38 80 49 123 27 64 -33 61 1 61 -831 l0 -755 305 0 305 0 0 818
c0 544 -4 838 -11 878 -36 195 -153 352 -323 434 -99 47 -160 60 -275 60 -195
0 -388 -104 -489 -263 l-30 -47 -32 50 c-68 106 -208 206 -342 244 -70 20
-232 20 -307 0z"/>
<path d="M4789 2176 c-134 -28 -247 -84 -355 -175 -147 -124 -244 -291 -273
-472 -7 -40 -11 -338 -11 -796 l0 -733 305 0 305 0 0 280 0 280 205 0 205 0 0
-280 0 -280 305 0 305 0 0 733 c0 458 -4 756 -11 796 -46 289 -267 540 -554
631 -89 29 -323 37 -426 16z m249 -592 c49 -20 90 -60 113 -109 15 -33 19 -65
19 -192 l0 -153 -205 0 -205 0 0 153 c0 127 4 159 19 192 47 101 162 150 259
109z"/>
<path d="M3095 1613 c-90 -14 -200 -50 -280 -91 -75 -38 -107 -63 -190 -147
-113 -114 -168 -203 -207 -340 -32 -115 -33 -326 0 -438 30 -106 80 -201 150
-288 108 -134 242 -224 407 -275 79 -24 107 -28 220 -28 163 0 250 19 372 80
207 103 371 299 428 509 26 95 31 275 11 376 -35 172 -92 275 -231 415 -87 87
-112 106 -195 147 -52 25 -122 53 -155 62 -59 16 -271 28 -330 18z m158 -582
c161 -38 224 -253 109 -374 -110 -116 -295 -82 -356 65 -21 50 -20 134 3 183
25 54 79 104 132 120 53 17 63 17 112 6z"/>
<path d="M6730 1195 l0 -316 -28 21 c-90 66 -268 89 -395 50 -216 -67 -357
-306 -318 -536 57 -332 401 -503 689 -343 l52 29 0 -45 0 -45 125 0 125 0 0
750 0 750 -125 0 -125 0 0 -315z m-172 -512 c50 -29 86 -80 103 -145 31 -129
-76 -267 -209 -268 -192 -1 -289 243 -150 380 74 72 168 84 256 33z"/>
<path d="M8350 1195 l0 -215 -80 0 -80 0 0 -120 0 -120 79 0 79 0 4 -238 3
-237 33 -67 c68 -138 201 -213 339 -190 74 12 134 40 181 82 37 34 82 97 82
114 0 7 -49 36 -110 66 l-109 54 -20 -26 c-41 -52 -111 -43 -136 17 -11 26
-15 80 -15 214 0 99 3 186 6 195 5 13 27 16 135 16 l129 0 0 120 0 120 -130 0
-130 0 -2 213 -3 212 -127 3 -128 3 0 -216z"/>
<path d="M7830 934 c0 -25 -3 -44 -7 -42 -140 72 -142 72 -268 73 -120 0 -122
0 -195 -37 -96 -47 -139 -84 -188 -158 -58 -86 -83 -170 -83 -275 0 -94 11
-144 46 -218 53 -108 148 -197 255 -238 70 -27 190 -36 261 -19 30 7 82 27
117 45 l62 33 0 -44 0 -44 125 0 125 0 0 485 0 485 -125 0 -125 0 0 -46z
m-182 -243 c108 -56 151 -189 96 -299 -58 -118 -208 -157 -312 -82 -55 40 -83
89 -89 160 -8 80 15 137 73 189 71 63 151 73 232 32z"/>
<path d="M9750 931 l0 -49 -80 41 c-74 38 -88 41 -176 45 -107 5 -161 -6 -246
-50 -110 -58 -192 -159 -230 -281 -17 -57 -20 -87 -16 -173 4 -97 7 -109 46
-187 44 -90 111 -162 192 -210 91 -53 231 -71 335 -43 56 15 142 53 151 67 13
22 24 5 24 -36 l0 -45 120 0 120 0 0 485 0 485 -120 0 -120 0 0 -49z m-190
-241 c95 -48 143 -170 108 -271 -18 -54 -56 -96 -111 -124 -87 -43 -175 -28
-243 41 -103 107 -78 284 51 351 71 37 126 38 195 3z"/>
</g>
</svg>